<?xml version="1.0" encoding="UTF-8" standalone="no"?>
<!-- Created with Inkscape (http://www.inkscape.org/) -->

<svg
   width="210mm"
   height="297mm"
   viewBox="0 0 210 297"
   version="1.1"
   id="svg1"
   xml:space="preserve"
   inkscape:version="1.3.2 (091e20e, 2023-11-25, custom)"
   sodipodi:docname="markers-inkscape.svg"
   xmlns:inkscape="http://www.inkscape.org/namespaces/inkscape"
   xmlns:sodipodi="http://sodipodi.sourceforge.net/DTD/sodipodi-0.dtd"
   xmlns="http://www.w3.org/2000/svg"
   xmlns:svg="http://www.w3.org/2000/svg"><sodipodi:namedview
     id="namedview1"
     pagecolor="#ffffff"
     bordercolor="#000000"
     borderopacity="0.25"
     inkscape:showpageshadow="2"
     inkscape:pageopacity="0.0"
     inkscape:pagecheckerboard="0"
     inkscape:deskcolor="#d1d1d1"
     inkscape:document-units="mm"
     showguides="true"
     inkscape:zoom="8"
     inkscape:cx="428.1875"
     inkscape:cy="564.8125"
     inkscape:window-width="1920"
     inkscape:window-height="1009"
     inkscape:window-x="-8"
     inkscape:window-y="-8"
     inkscape:window-maximized="1"
     inkscape:current-layer="layer1"><sodipodi:guide
       position="111.375,155.45242"
       orientation="0,-1"
       id="guide1"
       inkscape:locked="false" /><sodipodi:guide
       position="104.87699,146.45517"
       orientation="1,0"
       id="guide3"
       inkscape:locked="false" /><sodipodi:guide
       position="106.7855,141.97927"
       orientation="0,-1"
       id="guide4"
       inkscape:locked="false" /><sodipodi:guide
       position="100.25795,150.66565"
       orientation="1,0"
       id="guide5"
       inkscape:locked="false" /><sodipodi:guide
       position="109.51178,150.87451"
       orientation="1,0"
       id="guide6"
       inkscape:locked="false" /><sodipodi:guide
       position="102.54816,150.66695"
       orientation="0,-1"
       id="guide7"
       inkscape:locked="false" /><sodipodi:guide
       position="115.7348,141.45916"
       orientation="1,0"
       id="guide8"
       inkscape:locked="false" /></sodipodi:namedview><defs
     id="defs1" /><g
     inkscape:label="Layer 1"
     inkscape:groupmode="layer"
     id="layer1"><rect
       style="fill:#999999;fill-opacity:1;stroke:#ffffff;stroke-width:0.525323;stroke-dasharray:none;stroke-opacity:1"
       id="rect8"
       width="41.325764"
       height="22.603256"
       x="92.609283"
       y="137.01874" /><path
       id="path6-9"
       style="fill:#f06418;fill-opacity:1;stroke:#ffffff;stroke-width:0.264583;stroke-dasharray:none;stroke-opacity:1"
       d="m 115.74415,141.54757 a 4.626915,4.626915 0 0 0 -4.62711,4.62711 4.626915,4.626915 0 0 0 0.0114,0.15865 h -0.0114 c -1e-5,2.33762 3.03372,6.81412 4.61884,8.68732 1.58512,-1.8732 4.63487,-6.3497 4.63486,-8.68732 h -0.0114 a 4.626915,4.626915 0 0 0 0.0114,-0.15865 4.626915,4.626915 0 0 0 -4.62659,-4.62711 z" /><path
       style="fill:#000000;stroke-width:0.264583"
       d="M 104.87699,155.20249 C 0,0 0,0 104.87699,155.20249 Z"
       id="path3"
       sodipodi:nodetypes="zz" /><path
       id="path6"
       style="fill:#f06418;stroke-width:0.26458333;fill-opacity:1;stroke:#ffffff;stroke-opacity:1;stroke-dasharray:none"
       d="m 104.87699,141.54758 a 4.626915,4.626915 0 0 0 -4.62711,4.62711 4.626915,4.626915 0 0 0 0.0114,0.15865 h -0.0114 c -1e-5,2.33762 3.03372,6.81412 4.61884,8.68732 1.58512,-1.8732 4.63487,-6.3497 4.63486,-8.68732 h -0.0114 a 4.626915,4.626915 0 0 0 0.0114,-0.15865 4.626915,4.626915 0 0 0 -4.62659,-4.62711 z"
       inkscape:export-filename="path6.svg"
       inkscape:export-xdpi="96"
       inkscape:export-ydpi="96" /><path
       d="m 103.88462,144.63951 -1.68804,0.24474 -0.0299,0.006 a 0.26458333,0.26458333 0 0 0 -0.11642,0.44555 l 1.22291,1.19037 -0.2884,1.68142 -0.003,0.0291 a 0.26458333,0.26458333 0 0 0 0.38735,0.24976 l 1.50971,-0.79375 1.50628,0.79375 0.0265,0.0122 a 0.26458333,0.26458333 0 0 0 0.35772,-0.29104 l -0.28867,-1.68142 1.22344,-1.19063 0.0206,-0.0225 a 0.26458333,0.26458333 0 0 0 -0.16749,-0.42862 l -1.68804,-0.24501 -0.75459,-1.52929 a 0.26458333,0.26458333 0 0 0 -0.47467,0 z"
       stroke-width="0"
       fill="currentColor"
       id="path2"
       style="fill:#ffffff;fill-opacity:1" /><path
       d="m 116.48525,144.72654 0.88943,-0.85979 a 0.60796372,0.60796372 0 0 1 0.85979,0.85979 l -0.85979,0.88944 0.74121,2.2236 -0.74121,0.75601 -1.03767,-1.94194 -0.88944,0.88944 v 0.88944 l -0.59296,0.59296 -0.44472,-1.33416 -1.33416,-0.44471 0.59296,-0.59297 h 0.88944 l 0.88944,-0.88943 -1.92712,-1.03768 0.74119,-0.7412 z"
       id="path2-7"
       style="fill:#ffffff;fill-opacity:1;stroke-width:0.296479"
       inkscape:export-filename="path2-7.svg"
       inkscape:export-xdpi="96"
       inkscape:export-ydpi="96" /><text
       xml:space="preserve"
       style="font-size:1.41111px;fill:#ffffff;fill-opacity:1;stroke:#ffffff;stroke-width:0.264583;stroke-dasharray:none;stroke-opacity:1"
       x="95.448433"
       y="157.46016"
       id="text8"><tspan
         sodipodi:role="line"
         id="tspan8"
         style="font-size:1.41111px;stroke:none;stroke-width:0.264583"
         x="95.448433"
         y="157.46016">Export selection, open in Gimp, copy-paste</tspan></text></g></svg>
