<svg xmlns="http://www.w3.org/2000/svg" xml:space="preserve" style="enable-background:new 0 0 320 320" viewBox="0 0 320 320"><circle cx="160" cy="160" r="160" style="fill:#ee6623"/><path d="M120 277.1c-.8 0-1.7-.1-2.5-.3-3.7-.9-6.7-3.6-7.9-7.2l-14.8-44.3-44.3-14.8c-3.6-1.2-6.4-4.2-7.2-7.9-.9-3.7.2-7.6 2.9-10.3l22-22c2.1-2.1 4.9-3.2 7.8-3.2h28.5l19.3-19.3-58.5-31.5c-3.1-1.7-5.2-4.7-5.7-8.1-.5-3.4.6-6.9 3.1-9.4l27.5-27.5c2.9-2.9 7.3-4 11.3-2.7L177.8 94 206 66.7c13-13 34.3-13 47.4.1 6.3 6.3 9.8 14.8 9.8 23.8s-3.5 17.4-9.8 23.8l-27.2 28.1 25.4 76.2c1.3 3.9.3 8.2-2.6 11.2L221.5 258c-2.5 2.5-5.9 3.7-9.4 3.2s-6.5-2.6-8.2-5.7l-31.5-59-19.4 19.1v28.5c0 2.9-1.2 5.7-3.2 7.8l-22 22c-2.1 2.1-5 3.2-7.8 3.2zm-45.7-81.9 32.7 10.9c3.3 1.1 5.9 3.7 7 7l10.9 32.6 6.2-6.2V211c0-2.9 1.2-5.7 3.2-7.8l33-33c2.5-2.5 6-3.6 9.4-3.1 3.5.5 6.5 2.6 8.1 5.7l31.5 58.9 12.3-12.6-25.5-76.1c-1.3-3.9-.3-8.2 2.5-11.1l31.9-33c2.3-2.3 3.5-5.2 3.5-8.3 0-3.1-1.2-6-3.4-8.2-4.4-4.4-12-4.4-16.4 0L188 114.5c-2.9 2.8-7.3 3.8-11.1 2.5l-76.1-25.4-12.2 12.3 58.5 31.5c3.1 1.7 5.2 4.7 5.7 8.1.5 3.4-.6 6.9-3.1 9.4l-33 33c-2.1 2.1-4.9 3.2-7.8 3.2H80.5l-6.2 6.1z" style="fill:#fff"/></svg>